<svg width="25" height="25" viewBox="0 0 25 25" fill="none" xmlns="http://www.w3.org/2000/svg">
<path d="M13.5709 2.08331C14.7427 2.08644 15.3375 2.09269 15.8511 2.10727L16.0532 2.11456C16.2865 2.1229 16.5167 2.13331 16.7948 2.14581C17.9032 2.1979 18.6594 2.3729 19.3229 2.63019C20.0104 2.89477 20.5896 3.2531 21.1688 3.83123C21.6985 4.35195 22.1083 4.98184 22.3698 5.67706C22.6271 6.3406 22.8021 7.09685 22.8542 8.20623C22.8667 8.48331 22.8771 8.71352 22.8854 8.9479L22.8917 9.14998C22.9073 9.66248 22.9136 10.2573 22.9157 11.4291L22.9167 12.2062V13.5708C22.9193 14.3306 22.9113 15.0904 22.8927 15.85L22.8865 16.0521C22.8782 16.2864 22.8677 16.5166 22.8552 16.7937C22.8032 17.9031 22.6261 18.6583 22.3698 19.3229C22.1091 20.0185 21.6991 20.6485 21.1688 21.1687C20.6479 21.6982 20.0181 22.1081 19.3229 22.3698C18.6594 22.6271 17.9032 22.8021 16.7948 22.8541C16.5477 22.8658 16.3004 22.8762 16.0532 22.8854L15.8511 22.8916C15.3375 22.9062 14.7427 22.9135 13.5709 22.9156L12.7938 22.9166H11.4302C10.6701 22.9193 9.90995 22.9113 9.15003 22.8927L8.94795 22.8864C8.70067 22.8771 8.45344 22.8663 8.20628 22.8541C7.09795 22.8021 6.3417 22.6271 5.67711 22.3698C4.98198 22.1087 4.35234 21.6988 3.83232 21.1687C3.30216 20.6482 2.89193 20.0183 2.63024 19.3229C2.37295 18.6594 2.19795 17.9031 2.14586 16.7937C2.13426 16.5466 2.12384 16.2993 2.11461 16.0521L2.10941 15.85C2.09021 15.0904 2.08153 14.3306 2.08336 13.5708V11.4291C2.08046 10.6694 2.0881 9.90956 2.10628 9.14998L2.11357 8.9479C2.12191 8.71352 2.13232 8.48331 2.14482 8.20623C2.19691 7.09685 2.37191 6.34165 2.6292 5.67706C2.89078 4.98113 3.30182 4.35105 3.83336 3.83123C4.35325 3.30151 4.98247 2.89163 5.67711 2.63019C6.3417 2.3729 7.09691 2.1979 8.20628 2.14581C8.48336 2.13331 8.71461 2.1229 8.94795 2.11456L9.15003 2.10831C9.90961 2.08981 10.6694 2.08182 11.4292 2.08435L13.5709 2.08331ZM12.5 7.29165C11.1187 7.29165 9.79394 7.84038 8.81718 8.81713C7.84043 9.79388 7.2917 11.1186 7.2917 12.5C7.2917 13.8813 7.84043 15.2061 8.81718 16.1828C9.79394 17.1596 11.1187 17.7083 12.5 17.7083C13.8814 17.7083 15.2061 17.1596 16.1829 16.1828C17.1596 15.2061 17.7084 13.8813 17.7084 12.5C17.7084 11.1186 17.1596 9.79388 16.1829 8.81713C15.2061 7.84038 13.8814 7.29165 12.5 7.29165ZM12.5 9.37498C12.9104 9.37491 13.3168 9.45567 13.696 9.61266C14.0751 9.76964 14.4197 9.99977 14.7099 10.2899C15.0001 10.58 15.2304 10.9245 15.3875 11.3036C15.5446 11.6827 15.6255 12.0891 15.6256 12.4995C15.6256 12.9098 15.5449 13.3162 15.3879 13.6954C15.2309 14.0746 15.0008 14.4191 14.7106 14.7093C14.4205 14.9996 14.076 15.2298 13.6969 15.3869C13.3178 15.544 12.9115 15.6249 12.5011 15.625C11.6723 15.625 10.8774 15.2957 10.2914 14.7097C9.70531 14.1236 9.37607 13.3288 9.37607 12.5C9.37607 11.6712 9.70531 10.8763 10.2914 10.2903C10.8774 9.70422 11.6723 9.37498 12.5011 9.37498M17.9698 5.72915C17.6245 5.72915 17.2933 5.86633 17.0491 6.11052C16.8049 6.35471 16.6677 6.6859 16.6677 7.03123C16.6677 7.37656 16.8049 7.70775 17.0491 7.95194C17.2933 8.19613 17.6245 8.33331 17.9698 8.33331C18.3152 8.33331 18.6463 8.19613 18.8905 7.95194C19.1347 7.70775 19.2719 7.37656 19.2719 7.03123C19.2719 6.6859 19.1347 6.35471 18.8905 6.11052C18.6463 5.86633 18.3152 5.72915 17.9698 5.72915Z" fill="white"/>
</svg>
