<svg width="25" height="25" viewBox="0 0 25 25" fill="none" xmlns="http://www.w3.org/2000/svg">
<g clip-path="url(#clip0_164_58)">
<path fill-rule="evenodd" clip-rule="evenodd" d="M18.75 3.125C19.5788 3.125 20.3737 3.45424 20.9597 4.04029C21.5458 4.62634 21.875 5.4212 21.875 6.25V18.75C21.875 19.5788 21.5458 20.3737 20.9597 20.9597C20.3737 21.5458 19.5788 21.875 18.75 21.875H6.25C5.4212 21.875 4.62634 21.5458 4.04029 20.9597C3.45424 20.3737 3.125 19.5788 3.125 18.75V6.25C3.125 5.4212 3.45424 4.62634 4.04029 4.04029C4.62634 3.45424 5.4212 3.125 6.25 3.125H18.75ZM8.33333 10.4167C8.05707 10.4167 7.79211 10.5264 7.59676 10.7218C7.40141 10.9171 7.29167 11.1821 7.29167 11.4583V16.6667C7.29167 16.9429 7.40141 17.2079 7.59676 17.4032C7.79211 17.5986 8.05707 17.7083 8.33333 17.7083C8.6096 17.7083 8.87455 17.5986 9.0699 17.4032C9.26525 17.2079 9.375 16.9429 9.375 16.6667V11.4583C9.375 11.1821 9.26525 10.9171 9.0699 10.7218C8.87455 10.5264 8.6096 10.4167 8.33333 10.4167ZM11.4583 9.375C11.1821 9.375 10.9171 9.48475 10.7218 9.6801C10.5264 9.87545 10.4167 10.1404 10.4167 10.4167V16.6667C10.4167 16.9429 10.5264 17.2079 10.7218 17.4032C10.9171 17.5986 11.1821 17.7083 11.4583 17.7083C11.7346 17.7083 11.9996 17.5986 12.1949 17.4032C12.3903 17.2079 12.5 16.9429 12.5 16.6667V12.8542C12.8177 12.4958 13.3542 12.075 13.951 11.8198C14.2979 11.6719 14.8198 11.6115 15.1823 11.726C15.3025 11.7566 15.4097 11.8253 15.4875 11.9219C15.5417 11.9948 15.625 12.1573 15.625 12.5V16.6667C15.625 16.9429 15.7347 17.2079 15.9301 17.4032C16.1254 17.5986 16.3904 17.7083 16.6667 17.7083C16.9429 17.7083 17.2079 17.5986 17.4032 17.4032C17.5986 17.2079 17.7083 16.9429 17.7083 16.6667V12.5C17.7083 11.8021 17.5312 11.1812 17.1625 10.6833C16.8232 10.2318 16.3483 9.90075 15.8073 9.73854C14.8677 9.44375 13.8271 9.60729 13.1323 9.90521C12.9097 10.0005 12.693 10.109 12.4833 10.2302C12.4397 9.9902 12.3131 9.77312 12.1258 9.61684C11.9385 9.46055 11.7023 9.37496 11.4583 9.375ZM8.33333 7.29167C8.05707 7.29167 7.79211 7.40141 7.59676 7.59676C7.40141 7.79211 7.29167 8.05707 7.29167 8.33333C7.29167 8.6096 7.40141 8.87455 7.59676 9.0699C7.79211 9.26525 8.05707 9.375 8.33333 9.375C8.6096 9.375 8.87455 9.26525 9.0699 9.0699C9.26525 8.87455 9.375 8.6096 9.375 8.33333C9.375 8.05707 9.26525 7.79211 9.0699 7.59676C8.87455 7.40141 8.6096 7.29167 8.33333 7.29167Z" fill="white"/>
</g>
<defs>
<clipPath id="clip0_164_58">
<rect width="25" height="25" fill="white"/>
</clipPath>
</defs>
</svg>
