<svg width="607" height="146" viewBox="0 0 607 146" fill="none" xmlns="http://www.w3.org/2000/svg">
<g filter="url(#filter0_d_741_149)">
<path d="M88.7408 16.2V61H77.2208V16.2H88.7408ZM127.117 22.664C137.165 22.664 146.573 26.248 146.701 40.136L146.573 61H135.565V44.296C135.565 36.296 132.877 32.136 123.853 32.136C116.493 32.136 108.557 35.912 105.165 39.88V61H94.2208V23.304H105.165V29.896C110.541 25.672 117.965 22.664 127.117 22.664ZM184.679 22.664C194.727 22.664 204.135 26.248 204.263 40.136L204.135 61H193.127V44.296C193.127 36.296 190.439 32.136 181.415 32.136C174.055 32.136 166.119 35.912 162.727 39.88V61H151.783V23.304H162.727V29.896C168.103 25.672 175.527 22.664 184.679 22.664ZM234.193 61.64C218.577 61.64 208.081 56.008 208.081 42.184C208.081 28.296 218.577 22.664 234.193 22.664C249.745 22.664 260.305 28.296 260.305 42.184C260.305 56.008 249.745 61.64 234.193 61.64ZM234.193 52.488C244.305 52.488 249.297 49.992 249.297 42.184C249.297 34.312 244.305 31.816 234.193 31.816C224.017 31.816 219.025 34.312 219.025 42.184C219.025 49.992 224.017 52.488 234.193 52.488ZM299.62 23.304H311.78L292.644 61H277.028L257.956 23.304H270.116L284.9 53.256L299.62 23.304ZM336.071 22.664C351.815 22.664 360.775 27.72 360.903 41.992V61H349.895V56.328C343.239 59.592 335.879 61.64 326.983 61.64C316.423 61.64 309.831 58.248 309.831 49.736C309.831 39.944 320.583 36.872 332.551 36.872C339.015 36.872 344.967 37.896 349.895 39.56C349.895 32.392 340.679 31.816 335.559 31.816C330.631 31.816 324.615 32.264 316.871 34.568L312.967 26.568C320.647 24.072 328.199 22.664 336.071 22.664ZM349.895 49.288V46.344C346.055 45.128 340.871 44.04 333.895 44.04C325.703 44.04 320.775 45.448 320.775 49.288C320.775 53.256 324.423 53.576 330.119 53.576C336.071 53.576 344.263 51.72 349.895 49.288ZM401.365 32.456H383.509V43.336C383.509 50.632 384.917 52.488 391.573 52.488C395.029 52.488 396.949 52.488 401.365 51.848V60.68C397.717 61.32 393.557 61.64 388.501 61.64C378.773 61.64 372.501 57.992 372.501 49.672V32.456H362.581V23.304H372.501V15.496L383.509 12.36V23.304H401.365V32.456ZM405.846 9.8H416.79V19.336H405.846V9.8ZM405.846 23.304H416.79V61H405.846V23.304ZM447.068 61.64C431.452 61.64 420.956 56.008 420.956 42.184C420.956 28.296 431.452 22.664 447.068 22.664C462.62 22.664 473.18 28.296 473.18 42.184C473.18 56.008 462.62 61.64 447.068 61.64ZM447.068 52.488C457.18 52.488 462.172 49.992 462.172 42.184C462.172 34.312 457.18 31.816 447.068 31.816C436.892 31.816 431.9 34.312 431.9 42.184C431.9 49.992 436.892 52.488 447.068 52.488ZM510.242 22.664C520.29 22.664 529.698 26.248 529.826 40.136L529.698 61H518.69V44.296C518.69 36.296 516.002 32.136 506.978 32.136C499.618 32.136 491.682 35.912 488.29 39.88V61H477.346V23.304H488.29V29.896C493.666 25.672 501.09 22.664 510.242 22.664Z" fill="white"/>
<path d="M4.2995 106.576H15.8195C15.8195 111.312 19.6595 113.488 34.2515 113.488C46.3475 113.488 49.9955 112.144 49.9955 108.624C49.9955 104.912 47.4355 104.272 32.9075 103.568C13.3875 102.672 5.6435 99.6 5.6435 89.552C5.6435 79.696 15.6915 76.56 32.4595 76.56C49.3555 76.56 59.5955 80.784 59.5955 91.856H48.0755C48.0755 86.928 43.1475 85.712 31.1795 85.712C19.8515 85.712 17.1635 86.8 17.1635 90.128C17.1635 93.584 19.8515 94.224 32.9075 94.992C50.5715 95.952 61.5155 96.912 61.5155 108.24C61.5155 120.208 50.1875 122.64 33.6115 122.64C15.2435 122.64 4.2995 119.504 4.2995 106.576ZM107.474 84.304H118.418V122H107.474V115.408C102.098 119.632 94.674 122.64 85.522 122.64C75.474 122.64 66.066 119.056 65.938 105.168L66.066 84.304H77.074V101.008C77.074 109.008 79.762 113.168 88.786 113.168C96.146 113.168 104.082 109.392 107.474 105.424V84.304ZM122.612 108.752H133.556C133.556 112.784 137.716 114.32 149.94 114.32C161.78 114.32 163.7 113.552 163.7 110.608C163.7 107.728 161.908 107.536 148.66 106.704C132.084 105.744 123.956 104.464 123.956 95.376C123.956 85.52 135.476 83.664 148.916 83.664C163.124 83.664 173.428 85.52 173.428 95.888H162.42C162.42 92.752 158.452 91.984 148.276 91.984C137.908 91.984 134.964 92.752 134.964 94.928C134.964 97.296 136.948 97.68 149.94 98.64C164.66 99.728 174.708 100.112 174.708 110.16C174.708 120.784 165.108 122.64 150.58 122.64C136.052 122.64 122.612 120.784 122.612 108.752ZM214.584 93.456H196.728V104.336C196.728 111.632 198.136 113.488 204.792 113.488C208.248 113.488 210.168 113.488 214.584 112.848V121.68C210.936 122.32 206.776 122.64 201.72 122.64C191.992 122.64 185.72 118.992 185.72 110.672V93.456H175.799V84.304H185.72V76.496L196.728 73.36V84.304H214.584V93.456ZM244.352 83.664C260.096 83.664 269.056 88.72 269.184 102.992V122H258.176V117.328C251.52 120.592 244.16 122.64 235.264 122.64C224.704 122.64 218.112 119.248 218.112 110.736C218.112 100.944 228.864 97.872 240.832 97.872C247.296 97.872 253.248 98.896 258.176 100.56C258.176 93.392 248.96 92.816 243.84 92.816C238.912 92.816 232.896 93.264 225.152 95.568L221.248 87.568C228.928 85.072 236.48 83.664 244.352 83.664ZM258.176 110.288V107.344C254.336 106.128 249.152 105.04 242.176 105.04C233.984 105.04 229.056 106.448 229.056 110.288C229.056 114.256 232.704 114.576 238.4 114.576C244.352 114.576 252.544 112.72 258.176 110.288ZM274.315 70.8H285.259V80.336H274.315V70.8ZM274.315 84.304H285.259V122H274.315V84.304ZM323.648 83.664C333.696 83.664 343.104 87.248 343.232 101.136L343.104 122H332.096V105.296C332.096 97.296 329.408 93.136 320.384 93.136C313.024 93.136 305.088 96.912 301.696 100.88V122H290.752V84.304H301.696V90.896C307.072 86.672 314.496 83.664 323.648 83.664ZM373.29 83.664C389.034 83.664 397.994 88.72 398.122 102.992V122H387.114V117.328C380.458 120.592 373.098 122.64 364.202 122.64C353.642 122.64 347.049 119.248 347.049 110.736C347.049 100.944 357.802 97.872 369.77 97.872C376.234 97.872 382.186 98.896 387.114 100.56C387.114 93.392 377.898 92.816 372.778 92.816C367.85 92.816 361.833 93.264 354.09 95.568L350.186 87.568C357.866 85.072 365.418 83.664 373.29 83.664ZM387.114 110.288V107.344C383.274 106.128 378.09 105.04 371.114 105.04C362.922 105.04 357.994 106.448 357.994 110.288C357.994 114.256 361.642 114.576 367.338 114.576C373.29 114.576 381.482 112.72 387.114 110.288ZM433.012 83.664C445.108 83.664 455.476 88.784 455.476 103.184C455.476 117.584 445.108 122.64 433.012 122.64C424.884 122.64 418.292 120.4 414.196 116.112V122H403.252V70.8H414.196V90.192C418.292 85.904 424.884 83.664 433.012 83.664ZM429.364 113.488C439.156 113.488 444.468 110.608 444.468 103.184C444.468 95.696 439.156 92.816 429.364 92.816C419.572 92.816 414.196 95.696 414.196 103.184C414.196 110.608 419.572 113.488 429.364 113.488ZM459.627 70.8H470.571V80.336H459.627V70.8ZM459.627 84.304H470.571V122H459.627V84.304ZM475.69 70.8H486.634V122H475.69V70.8ZM491.752 70.8H502.696V80.336H491.752V70.8ZM491.752 84.304H502.696V122H491.752V84.304ZM545.271 93.456H527.415V104.336C527.415 111.632 528.823 113.488 535.479 113.488C538.935 113.488 540.855 113.488 545.271 112.848V121.68C541.623 122.32 537.463 122.64 532.407 122.64C522.679 122.64 516.407 118.992 516.407 110.672V93.456H506.487V84.304H516.407V76.496L527.415 73.36V84.304H545.271V93.456ZM590.62 84.304H602.716L577.244 138H565.148L572.764 122H567.132L547.612 84.304H559.772L575.9 115.408L590.62 84.304Z" fill="white"/>
<path d="M291.593 82.4948C293.236 85.3918 294.057 87.7812 294.057 89.6628C294.057 91.5742 293.475 93.1124 292.31 94.2772C291.175 95.4718 289.682 96.0692 287.83 96.0692C285.978 96.0692 284.455 95.5465 283.26 94.5012C282.096 93.4857 281.513 92.067 281.513 90.2452C281.513 89.8868 281.573 89.17 281.692 88.0948L283.081 75.9988C281.319 73.6393 279.87 71.7577 278.736 70.354C279.751 68.9502 280.602 68.2484 281.289 68.2484C281.618 68.2484 281.916 68.4126 282.185 68.7412C282.484 69.0697 282.977 69.682 283.664 70.578L285.366 55.5252C285.605 53.5539 286.083 51.9561 286.8 50.7316C287.755 49.1486 289.517 48.3572 292.086 48.3572C293.908 48.3572 295.297 48.8649 296.252 49.8803C297.208 50.866 297.686 52.2398 297.686 54.0019C297.686 56.3614 296.909 58.691 295.356 60.9908C293.833 63.2905 292.056 65.3065 290.025 67.0388L288.905 77.8356C289.413 78.403 290.13 78.6868 291.056 78.6868C292.907 78.6868 294.445 77.9102 295.67 76.3572C296.924 74.7742 298.014 72.5492 298.94 69.682C299.358 69.9209 299.792 70.2345 300.24 70.6228C300.717 70.9812 300.986 71.235 301.046 71.3844C300.359 74.6996 299.164 77.2681 297.462 79.09C295.76 80.9118 293.803 82.0468 291.593 82.4948ZM293.699 52.2548C293.549 52.2249 293.4 52.21 293.251 52.21C292.444 52.21 291.907 52.7326 291.638 53.7779C291.369 54.8233 291.041 57.2276 290.652 60.9908L290.473 62.6932C291.757 61.379 292.788 59.9902 293.564 58.5267C294.371 57.0334 294.774 55.6894 294.774 54.4948C294.774 53.2702 294.416 52.5236 293.699 52.2548ZM287.696 89.2596C287.666 89.4089 287.651 89.7225 287.651 90.2004C287.651 90.7081 287.8 91.1262 288.099 91.4548C288.397 91.7833 288.786 91.9476 289.264 91.9476C289.771 91.9476 290.219 91.7385 290.608 91.3204C290.996 90.9321 291.19 90.3198 291.19 89.4836C291.19 87.9006 290.249 85.7353 288.368 82.9876L287.696 89.2596ZM309.304 60.9011C312.051 60.9011 314.336 61.7822 316.158 63.5444C318.01 65.3065 318.936 67.4569 318.936 69.9956C318.936 73.8484 317.801 76.9396 315.531 79.2692C313.291 81.5689 310.573 82.7188 307.377 82.7188C304.181 82.7188 301.643 81.8078 299.761 79.986C297.909 78.1641 296.983 75.9092 296.983 73.2212C296.983 69.458 298.133 66.4713 300.433 64.2612C302.763 62.0212 305.72 60.9011 309.304 60.9011ZM308.407 64.53C307.004 64.53 305.824 65.3364 304.868 66.9492C303.913 68.562 303.39 70.5929 303.3 73.042C303.3 74.7742 303.644 76.2078 304.331 77.3428C305.047 78.4777 306.123 79.0452 307.556 79.0452C308.99 79.0452 310.185 78.2537 311.14 76.6708C312.126 75.0878 312.619 73.2809 312.619 71.25C312.619 69.219 312.275 67.6062 311.588 66.4116C310.901 65.1572 309.841 64.53 308.407 64.53ZM334.057 66.77C334.057 65.4558 333.445 64.7988 332.22 64.7988C331.025 64.7988 330.07 65.5753 329.353 67.1284C332.578 69.667 334.191 72.5193 334.191 75.6852C334.191 77.9849 333.549 79.7321 332.265 80.9268C330.981 82.1214 329.368 82.7188 327.426 82.7188C325.485 82.7188 324.066 82.1214 323.17 80.9268C322.274 79.7022 321.826 78.1641 321.826 76.3124C321.826 75.7449 321.841 75.3268 321.871 75.058L323.439 61.394C324.514 61.0654 325.605 60.9011 326.71 60.9011C328.532 60.9011 329.442 61.5732 329.442 62.9172V63.0068C330.637 61.603 332.16 60.9011 334.012 60.9011C335.356 60.9011 336.401 61.2148 337.148 61.842C337.895 62.4393 338.268 63.2457 338.268 64.2612C338.268 65.2766 337.88 66.1129 337.103 66.77C336.357 67.3972 335.371 67.7108 334.146 67.7108C334.087 67.7108 334.027 67.7108 333.967 67.7108C334.027 67.3822 334.057 67.0686 334.057 66.77ZM331.279 75.4612C331.279 73.7289 330.383 71.9966 328.591 70.2644C328.054 74.5652 327.785 76.7305 327.785 76.7604C327.785 78.0148 328.293 78.642 329.308 78.642C330.622 78.642 331.279 77.5817 331.279 75.4612Z" fill="url(#paint0_linear_741_149)"/>
</g>
<defs>
<filter id="filter0_d_741_149" x="0.298828" y="9.80005" width="606.418" height="136.2" filterUnits="userSpaceOnUse" color-interpolation-filters="sRGB">
<feFlood flood-opacity="0" result="BackgroundImageFix"/>
<feColorMatrix in="SourceAlpha" type="matrix" values="0 0 0 0 0 0 0 0 0 0 0 0 0 0 0 0 0 0 127 0" result="hardAlpha"/>
<feOffset dy="4"/>
<feGaussianBlur stdDeviation="2"/>
<feComposite in2="hardAlpha" operator="out"/>
<feColorMatrix type="matrix" values="0 0 0 0 0 0 0 0 0 0 0 0 0 0 0 0 0 0 0.25 0"/>
<feBlend mode="normal" in2="BackgroundImageFix" result="effect1_dropShadow_741_149"/>
<feBlend mode="normal" in="SourceGraphic" in2="effect1_dropShadow_741_149" result="shape"/>
</filter>
<linearGradient id="paint0_linear_741_149" x1="268" y1="67.45" x2="331.559" y2="67.45" gradientUnits="userSpaceOnUse">
<stop stop-color="#004CF1"/>
<stop offset="0.496213" stop-color="#00ECEC"/>
<stop offset="0.895" stop-color="#00B836"/>
</linearGradient>
</defs>
</svg>
